# Blender v2.77 (sub 0) OBJ File: 'clouds.blend'
# www.blender.org
mtllib clouds.mtl
o Plane
v -0.799965 0.801297 -0.465488
v -1.354470 -0.220488 -0.465488
v -1.092790 -0.220488 -0.465488
v -0.792046 -0.025962 -0.465488
v -0.610571 0.995590 -0.465488
v -0.284517 1.115696 -0.465488
v 0.146358 1.018433 -0.465488
v 0.473516 0.654883 -0.465488
v 0.692620 0.762554 -0.465488
v 0.998217 0.762554 -0.465488
v 1.370870 0.670179 -0.465488
v 1.559799 0.449931 -0.465488
v 1.523766 -0.005991 -0.465488
v 1.369945 -0.193221 -0.465488
v 0.980269 -0.259140 -0.465488
v 0.685494 -0.259140 -0.465488
v 0.405462 -0.026970 -0.465488
v 0.133497 -0.272124 -0.465488
v -0.285921 -0.272124 -0.465488
v -0.584686 -0.200308 -0.465488
v -1.617493 -0.112263 -0.465488
v -1.679525 0.239806 -0.465488
v -1.512563 0.575317 -0.465488
v -1.202474 0.630854 -0.465488
v -0.950886 0.473267 -0.465488
v -0.799965 0.250620 -0.984950
v -1.354470 0.225064 0.119820
v -1.092790 0.225064 0.119820
v -0.792046 0.227560 0.051555
v -0.610571 0.255986 -1.131675
v -0.284517 0.259555 -1.229282
v 0.146358 0.256820 -1.154503
v 0.473516 0.366384 -1.010235
v 0.692620 0.257645 -1.177051
v 0.971108 0.257645 -1.177051
v 1.370870 0.252104 -1.025521
v 1.559799 0.244056 -0.805420
v 1.559799 0.233952 -0.123257
v 1.369945 0.226546 0.079283
v 0.980269 0.222962 0.177281
v 0.685494 0.222962 0.177281
v 0.405462 0.344180 0.002851
v 0.133497 0.222257 0.196584
v -0.285921 0.222257 0.196584
v -0.584686 0.226161 0.089819
v -1.617492 0.230947 -0.041072
v -1.512563 0.248638 -0.930723
v -1.202474 0.250667 -0.986223
v -0.950886 0.244908 -0.828741
v 1.613036 0.233286 -0.459558
v 0.473516 0.570290 -0.936408
v 0.692620 0.675057 -1.066365
v 0.998217 0.675057 -1.066365
v 1.370870 0.579891 -0.948317
v 1.559799 0.441659 -0.776849
v 0.473516 0.585188 -0.041713
v 0.692620 0.661964 0.033776
v 0.998217 0.661964 0.033776
v 1.370870 0.596096 -0.030988
v 1.559799 0.439046 -0.185405
v 0.473516 0.018576 -0.938140
v 0.692620 -0.142602 -1.090168
v 0.998217 -0.142602 -1.090168
v 1.370870 -0.100510 -0.952071
v 1.523766 0.011622 -0.751481
v -0.799965 -0.100458 -0.895776
v -0.610571 -0.161574 -1.011062
v -0.284517 -0.202230 -1.087755
v 0.146358 -0.171082 -1.028999
v -0.950886 0.113215 -0.773038
v -1.512563 -0.075942 -0.829742
v -1.202474 -0.099293 -0.873073
v -0.799965 0.523525 -0.924931
v -0.610571 0.792049 -1.044832
v -0.284517 0.862919 -1.115802
v 0.146358 0.808624 -1.061430
v -0.950886 0.410105 -0.817367
v -1.512563 0.453841 -0.873465
v -1.202474 0.509378 -0.873465
v -0.799965 0.537458 -0.047168
v -0.610571 0.709196 0.073362
v -0.284517 0.779660 0.144780
v 0.146358 0.725675 0.090065
v -0.950886 0.424688 -0.155412
v -1.472763 0.457987 -0.074380
v -1.162673 0.513524 -0.074380
v -1.354469 -0.129626 -0.047048
v -1.092790 -0.129626 -0.047048
v -0.792046 0.051815 -0.094802
v 1.503286 0.022912 -0.178162
v 1.369945 -0.110129 -0.075405
v 0.980269 -0.157264 -0.006851
v 0.685494 -0.157264 -0.006851
v 0.405462 0.041472 -0.128872
v 0.133497 -0.166548 0.006653
v -0.285921 -0.166548 0.006653
v -0.584685 -0.115197 -0.068034
v -1.617492 -0.081128 -0.159599
v 1.155656 0.486848 0.015226
v 0.811352 0.432353 0.073850
vt 0.9400 0.5928
vt 0.9446 0.6177
vt 0.8890 0.6626
vt 0.8726 0.6025
vt 0.8074 0.7044
vt 0.7879 0.6150
vt 0.7395 0.7251
vt 0.7134 0.6288
vt 0.6555 0.7348
vt 0.6467 0.6410
vt 0.8365 0.7941
vt 0.7551 0.8158
vt 0.6749 0.8147
vt 0.9412 0.7152
vt 0.9756 0.6304
vt 0.9812 0.5851
vt 0.8709 0.5466
vt 0.9384 0.5699
vt 0.7813 0.5375
vt 0.7024 0.5437
vt 0.6218 0.5592
vt 0.7310 0.4729
vt 0.6814 0.4321
vt 0.5881 0.4665
vt 0.8311 0.5057
vt 0.9632 0.5382
vt 0.9046 0.4730
vt 0.9983 0.2621
vt 0.9693 0.2833
vt 0.9241 0.2239
vt 0.9576 0.1800
vt 0.8369 0.1711
vt 0.8531 0.1047
vt 0.7600 0.1512
vt 0.7712 0.0850
vt 0.6748 0.1561
vt 0.6884 0.0960
vt 0.9052 0.2936
vt 0.8071 0.2770
vt 0.7293 0.2618
vt 0.6361 0.2494
vt 0.9633 0.3024
vt 0.9999 0.3098
vt 0.2912 0.0293
vt 0.2939 0.0893
vt 0.2294 0.0919
vt 0.2308 0.0553
vt 0.4653 0.0001
vt 0.5912 0.0420
vt 0.5669 0.1235
vt 0.4514 0.0879
vt 0.3617 0.0052
vt 0.3603 0.0838
vt 0.5410 0.2231
vt 0.4269 0.1982
vt 0.3384 0.1796
vt 0.2710 0.1617
vt 0.0543 0.0430
vt 0.1459 0.0240
vt 0.1469 0.0823
vt 0.0676 0.0915
vt 0.1747 0.1458
vt 0.1081 0.1382
vt 0.0001 0.1159
vt 0.0480 0.1286
vt 0.3393 0.7025
vt 0.3090 0.7889
vt 0.2331 0.7801
vt 0.2303 0.7195
vt 0.4416 0.6837
vt 0.5125 0.6691
vt 0.5372 0.7500
vt 0.4527 0.7639
vt 0.3890 0.6938
vt 0.3884 0.7665
vt 0.5794 0.8606
vt 0.4557 0.8953
vt 0.3557 0.8736
vt 0.2920 0.8420
vt 0.2293 0.8118
vt 0.0738 0.7296
vt 0.1351 0.7220
vt 0.1381 0.7760
vt 0.0647 0.7753
vt 0.1336 0.8324
vt 0.0500 0.8066
vt 0.0001 0.7366
vt 0.2215 0.6710
vt 0.2846 0.6370
vt 0.4227 0.6107
vt 0.5033 0.5898
vt 0.3647 0.6317
vt 0.4905 0.4599
vt 0.3687 0.4818
vt 0.2904 0.5371
vt 0.2427 0.5784
vt 0.1507 0.5877
vt 0.0642 0.6767
vt 0.1427 0.6688
vt 0.0745 0.6032
vt 0.0089 0.6655
vt 0.3873 0.3641
vt 0.2999 0.3157
vt 0.3203 0.2469
vt 0.4085 0.2809
vt 0.5131 0.3893
vt 0.5248 0.3059
vt 0.6251 0.3030
vt 0.6143 0.3615
vt 0.7165 0.3395
vt 0.7004 0.4181
vt 0.7969 0.3522
vt 0.7894 0.4317
vt 0.9038 0.3487
vt 0.9113 0.4137
vt 0.9606 0.3301
vt 0.9790 0.3562
vt 0.2398 0.2900
vt 0.2561 0.2259
vt 0.1440 0.2830
vt 0.1619 0.2129
vt 0.0690 0.2584
vt 0.0943 0.1963
vt 0.0059 0.1911
vt 0.0388 0.1537
vn 0.7062 0.7026 -0.0872
vn 0.2642 0.9517 -0.1561
vn 0.0000 0.9896 -0.1441
vn -0.4653 0.8740 -0.1403
vn 0.0000 0.2563 -0.9666
vn -0.5430 0.2391 -0.8050
vn 0.3468 0.2174 -0.9124
vn 0.7376 0.1333 -0.6620
vn 0.9881 0.1313 -0.0795
vn 0.7208 0.6883 0.0818
vn 0.2192 0.9590 0.1794
vn 0.0000 0.9803 0.1975
vn -0.4067 0.8984 0.1657
vn 0.0000 0.1719 0.9851
vn -0.4087 0.2850 0.8670
vn 0.1810 0.0587 0.9817
vn 0.7127 0.2005 0.6722
vn 0.9865 0.1386 0.0875
vn 0.7848 -0.1776 -0.5937
vn 0.3528 -0.1827 -0.9177
vn 0.0000 -0.2121 -0.9772
vn -0.6431 -0.1592 -0.7491
vn 0.1698 -0.9690 -0.1796
vn 0.0000 -0.9830 -0.1834
vn -0.6402 -0.7524 -0.1550
vn 0.7268 -0.6801 -0.0963
vn 0.9599 -0.2644 -0.0928
vn -0.7348 -0.1950 -0.6497
vn 0.1560 -0.2840 -0.9461
vn -0.2628 -0.2756 -0.9246
vn -0.5768 -0.2151 -0.7881
vn 0.4187 -0.2242 -0.8800
vn 0.5927 -0.8026 -0.0673
vn 0.0460 -0.9888 -0.1420
vn -0.1868 -0.9785 -0.0871
vn -0.4992 -0.8651 0.0490
vn -0.7766 -0.6182 0.1213
vn -0.1602 -0.2987 -0.9408
vn 0.5263 -0.2813 -0.8024
vn 0.5788 -0.6719 -0.4620
vn -0.0620 -0.9501 -0.3056
vn -0.9396 -0.1332 -0.3152
vn -0.3730 -0.9065 -0.1978
vn -0.8297 0.5146 -0.2163
vn 0.1837 0.9216 -0.3421
vn -0.2982 0.8949 -0.3321
vn -0.7788 0.5691 -0.2637
vn 0.6840 0.7032 -0.1941
vn 0.4060 0.1971 -0.8924
vn 0.1572 0.1738 -0.9721
vn -0.2646 0.1670 -0.9498
vn -0.6349 0.1380 -0.7602
vn -0.6794 0.1180 -0.7242
vn -0.1692 0.9446 -0.2813
vn 0.4630 0.8613 -0.2093
vn 0.4224 0.2547 -0.8699
vn -0.1152 0.3418 -0.9327
vn -0.8875 0.4416 -0.1315
vn -0.9377 0.0934 -0.3347
vn -0.8292 0.5137 0.2203
vn 0.1815 0.8655 0.4668
vn -0.2953 0.8401 0.4550
vn -0.7058 0.6142 0.3530
vn 0.0728 0.1463 0.9866
vn 0.6210 0.7351 0.2720
vn 0.4767 0.1248 0.8702
vn -0.4109 0.1139 0.9045
vn -0.2237 0.6142 0.7567
vn -0.2794 0.0563 0.9585
vn -0.1682 0.9393 0.2989
vn -0.0566 0.5832 0.8103
vn 0.4908 0.5653 0.6630
vn 0.4860 0.8563 0.1750
vn -0.8735 0.4347 0.2193
vn -0.8269 0.5465 0.1323
vn -0.4684 0.4132 0.7809
vn -0.2995 -0.4103 0.8614
vn 0.0000 -0.4389 0.8985
vn 0.6269 -0.3286 0.7064
vn -0.5844 -0.3406 0.7365
vn 0.0000 -0.4359 0.9000
vn 0.2158 -0.4172 0.8828
vn 0.7206 -0.3114 0.6195
vn -0.3228 -0.4799 0.8158
vn 0.3061 -0.4841 0.8197
vn 0.0000 -0.4257 0.9049
vn -0.4603 -0.3493 0.8161
vn -0.9882 -0.0544 0.1433
vn -0.9847 -0.1735 0.0177
vn -0.3128 -0.9366 0.1578
vn 0.0000 -0.9772 0.2122
vn 0.5317 -0.8282 0.1770
vn -0.6334 -0.7570 0.1605
vn -0.2224 -0.9523 0.2088
vn 0.0000 -0.9759 0.2182
vn 0.6550 -0.7387 0.1589
vn -0.6237 -0.7643 0.1637
vn 0.0000 -0.9762 0.2168
vn 0.1584 -0.9647 0.2102
vn 0.7585 -0.6389 0.1286
vn 0.9387 -0.3209 0.1262
vn 0.4028 0.2695 0.8747
vn 0.2201 0.4001 0.8897
vn 0.0606 0.2853 0.9565
vn -0.1837 0.3122 0.9321
vn 0.0000 0.4429 0.8966
vn 0.2624 0.2960 0.9185
usemtl cloud1
s off
f 12/1/1 55/2/1 54/3/1 11/4/1
f 11/4/2 54/3/2 53/5/2 10/6/2
f 10/6/3 53/5/3 52/7/3 9/8/3
f 9/8/4 52/7/4 51/9/4 8/10/4
f 35/11/5 34/12/5 52/7/5 53/5/5
f 34/12/6 33/13/6 51/9/6 52/7/6
f 36/14/7 35/11/7 53/5/7 54/3/7
f 37/15/8 36/14/8 54/3/8 55/2/8
f 12/1/9 50/16/9 37/15/9 55/2/9
f 11/4/10 59/17/10 60/18/10 12/1/10
f 10/6/11 58/19/11 59/17/11 11/4/11
f 9/8/12 57/20/12 58/19/12 10/6/12
f 8/10/13 56/21/13 57/20/13 9/8/13
f 58/19/14 57/20/14 100/22/14
f 41/23/15 57/20/15 56/21/15 42/24/15
f 59/17/16 58/19/16 99/25/16
f 38/26/17 60/18/17 59/17/17 39/27/17
f 12/1/18 60/18/18 38/26/18 50/16/18
f 37/28/19 65/29/19 64/30/19 36/31/19
f 36/31/20 64/30/20 63/32/20 35/33/20
f 35/33/21 63/32/21 62/34/21 34/35/21
f 34/35/22 62/34/22 61/36/22 33/37/22
f 14/38/23 15/39/23 63/32/23 64/30/23
f 15/39/24 16/40/24 62/34/24 63/32/24
f 16/40/25 17/41/25 61/36/25 62/34/25
f 13/42/26 14/38/26 64/30/26 65/29/26
f 50/43/27 13/42/27 65/29/27 37/28/27
f 26/44/28 66/45/28 70/46/28 49/47/28
f 31/48/29 32/49/29 69/50/29 68/51/29
f 30/52/30 31/48/30 68/51/30 67/53/30
f 26/44/31 30/52/31 67/53/31 66/45/31
f 32/49/32 33/37/32 61/36/32 69/50/32
f 18/54/33 69/50/33 61/36/33 17/41/33
f 18/54/34 19/55/34 68/51/34 69/50/34
f 19/55/35 20/56/35 67/53/35 68/51/35
f 20/56/36 4/57/36 66/45/36 67/53/36
f 66/45/37 4/57/37 70/46/37
f 47/58/38 48/59/38 72/60/38 71/61/38
f 48/59/39 49/47/39 70/46/39 72/60/39
f 3/62/40 72/60/40 70/46/40 4/57/40
f 3/62/41 2/63/41 71/61/41 72/60/41
f 22/64/42 47/58/42 71/61/42 21/65/42
f 21/65/43 71/61/43 2/63/43
f 1/66/44 73/67/44 77/68/44 25/69/44
f 6/70/45 7/71/45 76/72/45 75/73/45
f 5/74/46 6/70/46 75/73/46 74/75/46
f 1/66/47 5/74/47 74/75/47 73/67/47
f 7/71/48 8/10/48 51/9/48 76/72/48
f 32/76/49 76/72/49 51/9/49 33/13/49
f 32/76/50 31/77/50 75/73/50 76/72/50
f 31/77/51 30/78/51 74/75/51 75/73/51
f 30/78/52 26/79/52 73/67/52 74/75/52
f 49/80/53 77/68/53 73/67/53 26/79/53
f 23/81/54 24/82/54 79/83/54 78/84/54
f 24/82/55 25/69/55 77/68/55 79/83/55
f 48/85/56 79/83/56 77/68/56 49/80/56
f 48/85/57 47/86/57 78/84/57 79/83/57
f 23/81/58 78/84/58 22/87/58
f 47/86/59 22/87/59 78/84/59
f 25/69/60 84/88/60 80/89/60 1/66/60
f 7/71/61 6/70/61 82/90/61 83/91/61
f 6/70/62 5/74/62 81/92/62 82/90/62
f 5/74/63 1/66/63 80/89/63 81/92/63
f 43/93/64 83/91/64 82/90/64 44/94/64
f 7/71/65 83/91/65 56/21/65 8/10/65
f 43/93/66 42/24/66 56/21/66 83/91/66
f 45/95/67 81/92/67 80/89/67 29/96/67
f 28/97/68 29/96/68 80/89/68 84/88/68
f 44/94/69 82/90/69 81/92/69 45/95/69
f 24/82/70 23/81/70 85/98/70 86/99/70
f 28/97/71 86/99/71 85/98/71 27/100/71
f 84/88/72 86/99/72 28/97/72
f 24/82/73 86/99/73 84/88/73 25/69/73
f 23/81/74 22/87/74 85/98/74
f 22/87/75 46/101/75 85/98/75
f 46/101/76 27/100/76 85/98/76
f 44/102/77 45/103/77 97/104/77 96/105/77
f 43/106/78 44/102/78 96/105/78 95/107/78
f 43/106/79 95/107/79 94/108/79 42/109/79
f 42/109/80 94/108/80 93/110/80 41/111/80
f 41/111/81 93/110/81 92/112/81 40/113/81
f 40/113/82 92/112/82 91/114/82 39/115/82
f 39/115/83 91/114/83 90/116/83 38/117/83
f 45/103/84 29/118/84 89/119/84 97/104/84
f 29/118/85 28/120/85 88/121/85 89/119/85
f 28/120/86 27/122/86 87/123/86 88/121/86
f 27/122/87 46/124/87 98/125/87 87/123/87
f 22/64/88 98/125/88 46/124/88
f 22/64/89 21/65/89 98/125/89
f 21/65/90 2/63/90 87/123/90 98/125/90
f 2/63/91 3/62/91 88/121/91 87/123/91
f 3/62/92 4/57/92 89/119/92 88/121/92
f 4/57/93 20/56/93 97/104/93 89/119/93
f 20/56/94 19/55/94 96/105/94 97/104/94
f 19/55/95 18/54/95 95/107/95 96/105/95
f 18/54/96 17/41/96 94/108/96 95/107/96
f 17/41/97 16/40/97 93/110/97 94/108/97
f 16/40/98 15/39/98 92/112/98 93/110/98
f 15/39/99 14/38/99 91/114/99 92/112/99
f 14/38/100 13/42/100 90/116/100 91/114/100
f 13/42/101 50/43/101 38/117/101 90/116/101
f 58/19/102 40/113/102 99/25/102
f 40/113/103 39/27/103 99/25/103
f 59/17/104 99/25/104 39/27/104
f 58/19/105 100/22/105 40/113/105
f 41/111/106 40/113/106 100/22/106
f 57/20/107 41/23/107 100/22/107
