# Blender v2.77 (sub 0) OBJ File: 'cp.blend'
# www.blender.org
mtllib cp.mtl
o Plane.001_Plane
v -10.724586 -0.036048 5.675519
v 12.857804 -0.036048 5.675519
v -10.724586 -0.036048 -4.972371
v 12.857804 -0.036048 -4.972371
vt 0.0000 1.0000
vt 0.0000 0.0000
vt 1.0091 -0.0275
vt 0.9953 0.9931
vn 0.0000 1.0000 0.0000
usemtl cp
s off
f 1/1/1 2/2/1 4/3/1 3/4/1
o Plane_Plane.002
v 1.455240 1.991576 -1.775616
v 1.459074 2.821613 -1.775682
v 1.461751 1.991878 2.408902
v 1.465585 2.821915 2.408837
v 1.475991 1.991480 -1.775648
v 1.479825 2.821517 -1.775714
v 1.482502 1.991782 2.408870
v 1.486336 2.821819 2.408804
vt 0.0000 1.0000
vt 0.0000 0.0000
vt 0.8540 -0.0079
vt 0.8572 0.9921
vt 0.8572 0.9921
vt 0.8540 -0.0079
vt 0.0000 0.0000
vt 0.0000 1.0000
vn 1.0000 -0.0046 -0.0016
vn -1.0000 0.0046 0.0016
vn 0.0046 1.0000 -0.0001
vn 0.0016 0.0001 1.0000
vn -0.0046 -1.0000 0.0001
vn -0.0016 -0.0001 -1.0000
usemtl cp
s off
f 5/5/2 6/6/2 8/7/2 7/8/2
f 11/9/3 12/10/3 10/11/3 9/12/3
f 5/5/4 7/8/4 11/9/4 9/12/4
f 6/6/5 5/5/5 9/12/5 10/11/5
f 8/7/6 6/6/6 10/11/6 12/10/6
f 7/8/7 8/7/7 12/10/7 11/9/7
o Cube.002_Cube.011
v 1.266284 -0.032830 2.484431
v 1.266284 0.099117 2.484431
v 1.266284 -0.032830 2.325669
v 1.266284 0.099117 2.325669
v 1.624371 -0.032830 2.484431
v 1.624371 0.099117 2.484431
v 1.624371 -0.032830 2.325669
v 1.624371 0.099117 2.325669
vn -1.0000 0.0000 0.0000
vn 0.0000 0.0000 -1.0000
vn 1.0000 0.0000 0.0000
vn 0.0000 0.0000 1.0000
vn 0.0000 -1.0000 0.0000
vn 0.0000 1.0000 0.0000
usemtl cp
s off
f 14//8 16//8 15//8 13//8
f 16//9 20//9 19//9 15//9
f 20//10 18//10 17//10 19//10
f 18//11 14//11 13//11 17//11
f 13//12 15//12 19//12 17//12
f 18//13 20//13 16//13 14//13
o Cylinder.002_Cylinder.003
v 1.463332 0.088730 2.379494
v 1.463332 2.863581 2.379494
v 1.468320 0.088730 2.379986
v 1.468320 2.863581 2.379986
v 1.473117 0.088730 2.381441
v 1.473117 2.863581 2.381441
v 1.477538 0.088730 2.383804
v 1.477538 2.863581 2.383804
v 1.481413 0.088730 2.386984
v 1.481413 2.863581 2.386984
v 1.484593 0.088730 2.390859
v 1.484593 2.863581 2.390859
v 1.486956 0.088730 2.395280
v 1.486956 2.863581 2.395280
v 1.488412 0.088730 2.400077
v 1.488412 2.863581 2.400077
v 1.488903 0.088730 2.405066
v 1.488903 2.863581 2.405066
v 1.488412 0.088730 2.410054
v 1.488412 2.863581 2.410054
v 1.486956 0.088730 2.414851
v 1.486956 2.863581 2.414851
v 1.484593 0.088730 2.419272
v 1.484593 2.863581 2.419272
v 1.481413 0.088730 2.423147
v 1.481413 2.863581 2.423147
v 1.477538 0.088730 2.426327
v 1.477538 2.863581 2.426327
v 1.473117 0.088730 2.428690
v 1.473117 2.863581 2.428690
v 1.468320 0.088730 2.430146
v 1.468320 2.863581 2.430146
v 1.463332 0.088730 2.430637
v 1.463332 2.863581 2.430637
v 1.458343 0.088730 2.430146
v 1.458343 2.863581 2.430146
v 1.453546 0.088730 2.428690
v 1.453546 2.863581 2.428690
v 1.449125 0.088730 2.426327
v 1.449125 2.863581 2.426327
v 1.445250 0.088730 2.423147
v 1.445250 2.863581 2.423147
v 1.442070 0.088730 2.419272
v 1.442070 2.863581 2.419272
v 1.439707 0.088730 2.414851
v 1.439707 2.863581 2.414851
v 1.438252 0.088730 2.410054
v 1.438252 2.863581 2.410054
v 1.437760 0.088730 2.405066
v 1.437760 2.863581 2.405066
v 1.438252 0.088730 2.400077
v 1.438252 2.863581 2.400077
v 1.439707 0.088730 2.395280
v 1.439707 2.863581 2.395280
v 1.442070 0.088730 2.390859
v 1.442070 2.863581 2.390859
v 1.445250 0.088730 2.386984
v 1.445250 2.863581 2.386984
v 1.449125 0.088730 2.383804
v 1.449125 2.863581 2.383804
v 1.453546 0.088730 2.381441
v 1.453546 2.863581 2.381441
v 1.458343 0.088730 2.379986
v 1.458343 2.863581 2.379986
vn 0.0980 0.0000 -0.9952
vn 0.2903 0.0000 -0.9569
vn 0.4714 0.0000 -0.8819
vn 0.6344 0.0000 -0.7730
vn 0.7730 0.0000 -0.6344
vn 0.8819 0.0000 -0.4714
vn 0.9569 0.0000 -0.2903
vn 0.9952 0.0000 -0.0980
vn 0.9952 0.0000 0.0980
vn 0.9569 0.0000 0.2903
vn 0.8819 0.0000 0.4714
vn 0.7730 0.0000 0.6344
vn 0.6344 0.0000 0.7730
vn 0.4714 0.0000 0.8819
vn 0.2903 0.0000 0.9569
vn 0.0980 0.0000 0.9952
vn -0.0980 0.0000 0.9952
vn -0.2903 0.0000 0.9569
vn -0.4714 0.0000 0.8819
vn -0.6344 0.0000 0.7730
vn -0.7730 0.0000 0.6344
vn -0.8819 0.0000 0.4714
vn -0.9569 0.0000 0.2903
vn -0.9952 0.0000 0.0980
vn -0.9952 0.0000 -0.0980
vn -0.9569 0.0000 -0.2903
vn -0.8819 0.0000 -0.4714
vn -0.7730 0.0000 -0.6344
vn -0.6344 0.0000 -0.7730
vn -0.4714 0.0000 -0.8819
vn 0.0000 1.0000 0.0000
vn -0.2903 0.0000 -0.9569
vn -0.0980 0.0000 -0.9952
vn 0.0000 -1.0000 0.0000
usemtl cp
s off
f 21//14 22//14 24//14 23//14
f 23//15 24//15 26//15 25//15
f 25//16 26//16 28//16 27//16
f 27//17 28//17 30//17 29//17
f 29//18 30//18 32//18 31//18
f 31//19 32//19 34//19 33//19
f 33//20 34//20 36//20 35//20
f 35//21 36//21 38//21 37//21
f 37//22 38//22 40//22 39//22
f 39//23 40//23 42//23 41//23
f 41//24 42//24 44//24 43//24
f 43//25 44//25 46//25 45//25
f 45//26 46//26 48//26 47//26
f 47//27 48//27 50//27 49//27
f 49//28 50//28 52//28 51//28
f 51//29 52//29 54//29 53//29
f 53//30 54//30 56//30 55//30
f 55//31 56//31 58//31 57//31
f 57//32 58//32 60//32 59//32
f 59//33 60//33 62//33 61//33
f 61//34 62//34 64//34 63//34
f 63//35 64//35 66//35 65//35
f 65//36 66//36 68//36 67//36
f 67//37 68//37 70//37 69//37
f 69//38 70//38 72//38 71//38
f 71//39 72//39 74//39 73//39
f 73//40 74//40 76//40 75//40
f 75//41 76//41 78//41 77//41
f 77//42 78//42 80//42 79//42
f 79//43 80//43 82//43 81//43
f 24//44 22//44 84//44 82//44 80//44 78//44 76//44 74//44 72//44 70//44 68//44 66//44 64//44 62//44 60//44 58//44 56//44 54//44 52//44 50//44 48//44 46//44 44//44 42//44 40//44 38//44 36//44 34//44 32//44 30//44 28//44 26//44
f 81//45 82//45 84//45 83//45
f 83//46 84//46 22//46 21//46
f 21//47 23//47 25//47 27//47 29//47 31//47 33//47 35//47 37//47 39//47 41//47 43//47 45//47 47//47 49//47 51//47 53//47 55//47 57//47 59//47 61//47 63//47 65//47 67//47 69//47 71//47 73//47 75//47 77//47 79//47 81//47 83//47
o Cylinder
v 1.463332 0.088730 -1.787672
v 1.463332 2.863581 -1.787672
v 1.468320 0.088730 -1.787181
v 1.468320 2.863581 -1.787181
v 1.473117 0.088730 -1.785726
v 1.473117 2.863581 -1.785726
v 1.477538 0.088730 -1.783363
v 1.477538 2.863581 -1.783363
v 1.481413 0.088730 -1.780183
v 1.481413 2.863581 -1.780183
v 1.484593 0.088730 -1.776308
v 1.484593 2.863581 -1.776308
v 1.486956 0.088730 -1.771887
v 1.486956 2.863581 -1.771887
v 1.488412 0.088730 -1.767090
v 1.488412 2.863581 -1.767090
v 1.488903 0.088730 -1.762101
v 1.488903 2.863581 -1.762101
v 1.488412 0.088730 -1.757112
v 1.488412 2.863581 -1.757112
v 1.486956 0.088730 -1.752315
v 1.486956 2.863581 -1.752315
v 1.484593 0.088730 -1.747894
v 1.484593 2.863581 -1.747894
v 1.481413 0.088730 -1.744019
v 1.481413 2.863581 -1.744019
v 1.477538 0.088730 -1.740839
v 1.477538 2.863581 -1.740839
v 1.473117 0.088730 -1.738476
v 1.473117 2.863581 -1.738476
v 1.468320 0.088730 -1.737021
v 1.468320 2.863581 -1.737021
v 1.463332 0.088730 -1.736530
v 1.463332 2.863581 -1.736530
v 1.458343 0.088730 -1.737021
v 1.458343 2.863581 -1.737021
v 1.453546 0.088730 -1.738476
v 1.453546 2.863581 -1.738476
v 1.449125 0.088730 -1.740839
v 1.449125 2.863581 -1.740839
v 1.445250 0.088730 -1.744019
v 1.445250 2.863581 -1.744019
v 1.442070 0.088730 -1.747894
v 1.442070 2.863581 -1.747894
v 1.439707 0.088730 -1.752315
v 1.439707 2.863581 -1.752315
v 1.438252 0.088730 -1.757112
v 1.438252 2.863581 -1.757112
v 1.437760 0.088730 -1.762101
v 1.437760 2.863581 -1.762101
v 1.438252 0.088730 -1.767090
v 1.438252 2.863581 -1.767090
v 1.439707 0.088730 -1.771887
v 1.439707 2.863581 -1.771887
v 1.442070 0.088730 -1.776308
v 1.442070 2.863581 -1.776308
v 1.445250 0.088730 -1.780183
v 1.445250 2.863581 -1.780183
v 1.449125 0.088730 -1.783363
v 1.449125 2.863581 -1.783363
v 1.453546 0.088730 -1.785726
v 1.453546 2.863581 -1.785726
v 1.458343 0.088730 -1.787181
v 1.458343 2.863581 -1.787181
vn 0.0980 0.0000 -0.9952
vn 0.2903 0.0000 -0.9569
vn 0.4714 0.0000 -0.8819
vn 0.6344 0.0000 -0.7730
vn 0.7730 0.0000 -0.6344
vn 0.8819 0.0000 -0.4714
vn 0.9569 0.0000 -0.2903
vn 0.9952 0.0000 -0.0980
vn 0.9952 0.0000 0.0980
vn 0.9569 0.0000 0.2903
vn 0.8819 0.0000 0.4714
vn 0.7730 0.0000 0.6344
vn 0.6344 0.0000 0.7730
vn 0.4714 0.0000 0.8819
vn 0.2903 0.0000 0.9569
vn 0.0980 0.0000 0.9952
vn -0.0980 0.0000 0.9952
vn -0.2903 0.0000 0.9569
vn -0.4714 0.0000 0.8819
vn -0.6344 0.0000 0.7730
vn -0.7730 0.0000 0.6344
vn -0.8819 0.0000 0.4714
vn -0.9569 0.0000 0.2903
vn -0.9952 0.0000 0.0980
vn -0.9952 0.0000 -0.0980
vn -0.9569 0.0000 -0.2903
vn -0.8819 0.0000 -0.4714
vn -0.7730 0.0000 -0.6344
vn -0.6344 0.0000 -0.7730
vn -0.4714 0.0000 -0.8819
vn 0.0000 1.0000 0.0000
vn -0.2903 0.0000 -0.9569
vn -0.0980 0.0000 -0.9952
vn 0.0000 -1.0000 0.0000
usemtl cp
s off
f 85//48 86//48 88//48 87//48
f 87//49 88//49 90//49 89//49
f 89//50 90//50 92//50 91//50
f 91//51 92//51 94//51 93//51
f 93//52 94//52 96//52 95//52
f 95//53 96//53 98//53 97//53
f 97//54 98//54 100//54 99//54
f 99//55 100//55 102//55 101//55
f 101//56 102//56 104//56 103//56
f 103//57 104//57 106//57 105//57
f 105//58 106//58 108//58 107//58
f 107//59 108//59 110//59 109//59
f 109//60 110//60 112//60 111//60
f 111//61 112//61 114//61 113//61
f 113//62 114//62 116//62 115//62
f 115//63 116//63 118//63 117//63
f 117//64 118//64 120//64 119//64
f 119//65 120//65 122//65 121//65
f 121//66 122//66 124//66 123//66
f 123//67 124//67 126//67 125//67
f 125//68 126//68 128//68 127//68
f 127//69 128//69 130//69 129//69
f 129//70 130//70 132//70 131//70
f 131//71 132//71 134//71 133//71
f 133//72 134//72 136//72 135//72
f 135//73 136//73 138//73 137//73
f 137//74 138//74 140//74 139//74
f 139//75 140//75 142//75 141//75
f 141//76 142//76 144//76 143//76
f 143//77 144//77 146//77 145//77
f 88//78 86//78 148//78 146//78 144//78 142//78 140//78 138//78 136//78 134//78 132//78 130//78 128//78 126//78 124//78 122//78 120//78 118//78 116//78 114//78 112//78 110//78 108//78 106//78 104//78 102//78 100//78 98//78 96//78 94//78 92//78 90//78
f 145//79 146//79 148//79 147//79
f 147//80 148//80 86//80 85//80
f 85//81 87//81 89//81 91//81 93//81 95//81 97//81 99//81 101//81 103//81 105//81 107//81 109//81 111//81 113//81 115//81 117//81 119//81 121//81 123//81 125//81 127//81 129//81 131//81 133//81 135//81 137//81 139//81 141//81 143//81 145//81 147//81
o Cube.001_Cube.008
v 1.266284 -0.032830 -1.682736
v 1.266284 0.099117 -1.682736
v 1.266284 -0.032830 -1.841498
v 1.266284 0.099117 -1.841498
v 1.624371 -0.032830 -1.682736
v 1.624371 0.099117 -1.682736
v 1.624371 -0.032830 -1.841498
v 1.624371 0.099117 -1.841498
vn -1.0000 0.0000 0.0000
vn 0.0000 0.0000 -1.0000
vn 1.0000 0.0000 0.0000
vn 0.0000 0.0000 1.0000
vn 0.0000 -1.0000 0.0000
vn 0.0000 1.0000 0.0000
usemtl cp
s off
f 150//82 152//82 151//82 149//82
f 152//83 156//83 155//83 151//83
f 156//84 154//84 153//84 155//84
f 154//85 150//85 149//85 153//85
f 149//86 151//86 155//86 153//86
f 154//87 156//87 152//87 150//87
