# Apple ModelIO OBJ File: skybox
mtllib skybox.mtl
o MDL Obj1
v 1.55144 -1.47971 -1.50016
v -1.44856 -1.47971 -1.50016
v 1.55144 -1.47971 1.49984
v 1.55144 -1.47971 1.49984
v -1.44856 -1.47971 -1.50016
v -1.44856 -1.47971 1.49984
v 1.55144 -1.47971 -1.50016
v 1.55144 1.52029 -1.50015
v -1.44856 -1.47971 -1.50016
v -1.44856 -1.47971 -1.50016
v 1.55144 1.52029 -1.50015
v -1.44856 1.52029 -1.50015
v 1.55144 1.52029 1.49985
v -1.44856 1.52029 1.49985
v 1.55144 1.52029 -1.50015
v 1.55144 1.52029 -1.50015
v -1.44856 1.52029 1.49985
v -1.44856 1.52029 -1.50015
v 1.55144 -1.47971 1.49984
v 1.55144 1.52029 1.49985
v 1.55144 -1.47971 -1.50016
v 1.55144 -1.47971 -1.50016
v 1.55144 1.52029 1.49985
v 1.55144 1.52029 -1.50015
v -1.44856 -1.47971 -1.50016
v -1.44856 1.52029 -1.50015
v -1.44856 -1.47971 1.49984
v -1.44856 -1.47971 1.49984
v -1.44856 1.52029 -1.50015
v -1.44856 1.52029 1.49985
v 1.55144 -1.47971 1.49984
v -1.44856 -1.47971 1.49984
v 1.55144 1.52029 1.49985
v 1.55144 1.52029 1.49985
v -1.44856 -1.47971 1.49984
v -1.44856 1.52029 1.49985
vn 0 1 0
vn 0 1 0
vn 0 1 0
vn 0 1 0
vn 0 1 0
vn 0 1 0
vn 0 -0 1
vn 0 -0 1
vn 0 -0 1
vn 0 -0 1
vn 0 -0 1
vn 0 -0 1
vn 0 -1 -0
vn 0 -1 -0
vn 0 -1 -0
vn 0 -1 -0
vn 0 -1 -0
vn 0 -1 -0
vn -1 0 0
vn -1 0 0
vn -1 0 0
vn -1 0 0
vn -1 0 0
vn -1 0 0
vn 1 0 0
vn 1 0 0
vn 1 0 0
vn 1 0 0
vn 1 0 0
vn 1 0 0
vn 0 0 -1
vn 0 0 -1
vn 0 0 -1
vn 0 0 -1
vn 0 0 -1
vn 0 0 -1
vt 1 0 
vt 0 0 
vt 1 1 
vt 1 1 
vt 0 0 
vt 0 1 
vt 0 0 
vt 0 1 
vt 1 0 
vt 1 0 
vt 0 1 
vt 1 1 
vt 1 0 
vt 0 0 
vt 1 1 
vt 1 1 
vt 0 0 
vt 0 1 
vt 0 0 
vt 0 1 
vt 1 0 
vt 1 0 
vt 0 1 
vt 1 1 
vt 0 0 
vt 0 1 
vt 1 0 
vt 1 0 
vt 0 1 
vt 1 1 
vt 1 0 
vt 0 0 
vt 1 1 
vt 1 1 
vt 0 0 
vt 0 1 
usemtl material_1
f 1/1/1 2/2/2 3/3/3
f 4/4/4 5/5/5 6/6/6
o MDL Obj2
usemtl material_2
f 7/7/7 8/8/8 9/9/9
f 10/10/10 11/11/11 12/12/12
o MDL Obj3
usemtl material_3
f 13/13/13 14/14/14 15/15/15
f 16/16/16 17/17/17 18/18/18
o MDL Obj4
usemtl material_4
f 19/19/19 20/20/20 21/21/21
f 22/22/22 23/23/23 24/24/24
o MDL Obj5
usemtl material_5
f 25/25/25 26/26/26 27/27/27
f 28/28/28 29/29/29 30/30/30
o MDL Obj6
usemtl material_6
f 31/31/31 32/32/32 33/33/33
f 34/34/34 35/35/35 36/36/36
