# Blender v2.77 (sub 0) OBJ File: ''
# www.blender.org
mtllib skybox2.mtl
g 3DGeom~5
v 1.551436 -1.479708 -1.500156
v -1.448564 -1.479708 -1.500156
v 1.551436 -1.479709 1.499844
v -1.448564 -1.479709 1.499844
vt 1.0000 0.0000
vt 0.0000 0.0000
vt 1.0000 1.0000
vt 0.0000 1.0000
vn 0.0000 1.0000 0.0000
usemtl skybox_country_paths_bottom
s 1
f 1/1/1 2/2/1 3/3/1
f 3/3/1 2/2/1 4/4/1
g 3DGeom~2
v 1.551436 -1.479708 -1.500156
v 1.551436 1.520292 -1.500155
v -1.448564 -1.479708 -1.500156
v -1.448564 1.520292 -1.500155
vt 0.0000 0.0000
vt 0.0000 1.0000
vt 1.0000 0.0000
vt 1.0000 1.0000
vn 0.0000 -0.0000 1.0000
usemtl skybox_country_paths_back
s 1
f 5/5/2 6/6/2 7/7/2
f 7/7/2 6/6/2 8/8/2
g 3DGeom~6
v 1.551436 1.520291 1.499845
v -1.448564 1.520291 1.499845
v 1.551436 1.520292 -1.500155
v -1.448564 1.520292 -1.500155
vt 1.0000 0.0000
vt 0.0000 0.0000
vt 1.0000 1.0000
vt 0.0000 1.0000
vn 0.0000 -1.0000 -0.0000
usemtl skybox_country_paths_top
s 1
f 9/9/3 10/10/3 11/11/3
f 11/11/3 10/10/3 12/12/3
g 3DGeom~3
v 1.551436 -1.479709 1.499844
v 1.551436 1.520291 1.499845
v 1.551436 -1.479708 -1.500156
v 1.551436 1.520292 -1.500155
vt 0.0000 0.0000
vt 0.0000 1.0000
vt 1.0000 0.0000
vt 1.0000 1.0000
vn -1.0000 0.0000 0.0000
usemtl skybox_country_paths_right
s 1
f 13/13/4 14/14/4 15/15/4
f 15/15/4 14/14/4 16/16/4
g 3DGeom~1
v -1.448564 -1.479708 -1.500156
v -1.448564 1.520292 -1.500155
v -1.448564 -1.479709 1.499844
v -1.448564 1.520291 1.499845
vt 0.0000 0.0000
vt 0.0000 1.0000
vt 1.0000 0.0000
vt 1.0000 1.0000
vn 1.0000 0.0000 0.0000
usemtl skybox_country_paths_left
s 1
f 17/17/5 18/18/5 19/19/5
f 19/19/5 18/18/5 20/20/5
g 3DGeom~4
v 1.551436 -1.479709 1.499844
v -1.448564 -1.479709 1.499844
v 1.551436 1.520291 1.499845
v -1.448564 1.520291 1.499845
vt 1.0000 0.0000
vt 0.0000 0.0000
vt 1.0000 1.0000
vt 0.0000 1.0000
vn 0.0000 0.0000 -1.0000
usemtl skybox_country_paths_front
s 1
f 21/21/6 22/22/6 23/23/6
f 23/23/6 22/22/6 24/24/6
